<?xml version="1.0" standalone="no"?><svg xmlns:xlink="http://www.w3.org/1999/xlink" xmlns="http://www.w3.org/2000/svg" viewBox="0 0 1200 257.1390291262136" preserveAspectRatio="xMaxYMax slice"><g transform="scale(1.1650485436893203)"><rect x="0" y="0" width="1030" height="220.71428571428572" fill="#ffffff"/><rect x="269.2714285714286" y="48.55714285714286" width="13.24285714285714" height="13.24285714285714" fill="#ffffff"/><rect x="379.6285714285714" y="48.55714285714286" width="13.24285714285714" height="13.24285714285714" fill="#ffffff"/><rect x="386.25" y="48.56" width="6.62" height="6.62" fill="#eef8fd"/><rect x="489.98571428571427" y="48.55714285714286" width="13.24285714285714" height="13.24285714285714" fill="#ffffff"/><rect x="489.99" y="48.56" width="6.62" height="6.62" fill="#f4fbfe"/><g transform="translate(489.99,55.18) scale(0.331) rotate(0)"><path d="M19.9981 0.00193429L3.72652 -7.68637e-07L8.4784 4.75382L0 13.2345L6.76585 20L15.2462 11.5208L20 16.2746L19.9981 0.00193429Z" fill="#fbfeff"/></g><rect x="821.0571428571428" y="48.55714285714286" width="13.24285714285714" height="13.24285714285714" fill="#ffffff"/><rect x="821.06" y="55.18" width="6.62" height="6.62" fill="#f3fafe"/><g transform="translate(827.68,55.18) scale(0.331) rotate(0)"><path d="M19.9981 0.00193429L3.72652 -7.68637e-07L8.4784 4.75382L0 13.2345L6.76585 20L15.2462 11.5208L20 16.2746L19.9981 0.00193429Z" fill="#f2fafe"/></g><rect x="376.68571428571425" y="82.39999999999999" width="19.12857142857143" height="19.12857142857143" fill="#ffffff"/><rect x="376.69" y="82.4" width="9.56" height="9.56" fill="#fbfdff"/><rect x="413.47142857142853" y="82.39999999999999" width="19.12857142857143" height="19.12857142857143" fill="#ffffff"/><rect x="413.47" y="82.4" width="9.56" height="9.56" fill="#fafdfe"/><rect x="413.47" y="91.96" width="9.56" height="9.56" fill="#eef8fd"/><rect x="450.25714285714287" y="82.39999999999999" width="19.12857142857143" height="19.12857142857143" fill="#ffffff"/><rect x="560.6142857142856" y="82.39999999999999" width="19.12857142857143" height="19.12857142857143" fill="#ffffff"/><g transform="translate(560.61,82.4) scale(0.47800000000000004) rotate(0)"><path d="M19.9981 0.00193429L3.72652 -7.68637e-07L8.4784 4.75382L0 13.2345L6.76585 20L15.2462 11.5208L20 16.2746L19.9981 0.00193429Z" fill="#fbfdff"/></g><rect x="570.18" y="91.96" width="9.56" height="9.56" fill="#f1fafd"/><rect x="634.1857142857143" y="82.39999999999999" width="19.12857142857143" height="19.12857142857143" fill="#ffffff"/><rect x="670.9714285714285" y="82.39999999999999" width="19.12857142857143" height="19.12857142857143" fill="#ffffff"/><rect x="680.54" y="82.4" width="9.56" height="9.56" fill="#f1f9fd"/><g transform="translate(680.54,91.96) scale(0.47800000000000004) rotate(0)"><path d="M19.9981 0.00193429L3.72652 -7.68637e-07L8.4784 4.75382L0 13.2345L6.76585 20L15.2462 11.5208L20 16.2746L19.9981 0.00193429Z" fill="#f7fcfe"/></g><rect x="781.3285714285714" y="82.39999999999999" width="19.12857142857143" height="19.12857142857143" fill="#ffffff"/><g transform="translate(790.89,82.4) scale(0.47800000000000004) rotate(0)"><path d="M19.9981 0.00193429L3.72652 -7.68637e-07L8.4784 4.75382L0 13.2345L6.76585 20L15.2462 11.5208L20 16.2746L19.9981 0.00193429Z" fill="#ffffff"/></g><g transform="translate(790.89,91.96) scale(0.47800000000000004) rotate(0)"><path d="M19.9981 0.00193429L3.72652 -7.68637e-07L8.4784 4.75382L0 13.2345L6.76585 20L15.2462 11.5208L20 16.2746L19.9981 0.00193429Z" fill="#fbfeff"/></g><rect x="818.1142857142856" y="82.39999999999999" width="19.12857142857143" height="19.12857142857143" fill="#ffffff"/><g transform="translate(818.11,82.4) scale(0.47800000000000004) rotate(0)"><path d="M19.9981 0.00193429L3.72652 -7.68637e-07L8.4784 4.75382L0 13.2345L6.76585 20L15.2462 11.5208L20 16.2746L19.9981 0.00193429Z" fill="#f9fdfe"/></g><rect x="827.68" y="82.4" width="9.56" height="9.56" fill="#f4fbfe"/><rect x="891.6857142857143" y="82.39999999999999" width="19.12857142857143" height="19.12857142857143" fill="#ffffff"/><g transform="translate(901.25,91.96) scale(0.47800000000000004) rotate(0)"><path d="M19.9981 0.00193429L3.72652 -7.68637e-07L8.4784 4.75382L0 13.2345L6.76585 20L15.2462 11.5208L20 16.2746L19.9981 0.00193429Z" fill="#f9fdfe"/></g><rect x="965.2571428571429" y="82.39999999999999" width="19.12857142857143" height="19.12857142857143" fill="#ffffff"/><rect x="1002.0428571428571" y="82.39999999999999" width="19.12857142857143" height="19.12857142857143" fill="#ffffff"/><g transform="translate(1002.04,82.4) scale(0.47800000000000004) rotate(0)"><path d="M19.9981 0.00193429L3.72652 -7.68637e-07L8.4784 4.75382L0 13.2345L6.76585 20L15.2462 11.5208L20 16.2746L19.9981 0.00193429Z" fill="#f0f9fd"/></g><rect x="153.0285714285714" y="116.24285714285715" width="25.014285714285712" height="25.014285714285712" fill="#ffffff"/><rect x="165.54" y="116.24" width="12.51" height="12.51" fill="#f3fafe"/><rect x="153.03" y="128.75" width="12.51" height="12.51" fill="#feffff"/><rect x="226.60000000000002" y="116.24285714285715" width="25.014285714285712" height="25.014285714285712" fill="#ffffff"/><g transform="translate(226.6,116.24) scale(0.6255) rotate(0)"><path d="M19.9981 0.00193429L3.72652 -7.68637e-07L8.4784 4.75382L0 13.2345L6.76585 20L15.2462 11.5208L20 16.2746L19.9981 0.00193429Z" fill="#f2fafe"/></g><g transform="translate(226.6,128.75) scale(0.6255) rotate(0)"><path d="M19.9981 0.00193429L3.72652 -7.68637e-07L8.4784 4.75382L0 13.2345L6.76585 20L15.2462 11.5208L20 16.2746L19.9981 0.00193429Z" fill="#eff9fd"/></g><rect x="300.1714285714286" y="116.24285714285715" width="25.014285714285712" height="25.014285714285712" fill="#ffffff"/><g transform="translate(300.17,116.24) scale(0.6255) rotate(0)"><path d="M19.9981 0.00193429L3.72652 -7.68637e-07L8.4784 4.75382L0 13.2345L6.76585 20L15.2462 11.5208L20 16.2746L19.9981 0.00193429Z" fill="#eff9fd"/></g><g transform="translate(312.68,116.24) scale(0.6255) rotate(0)"><path d="M19.9981 0.00193429L3.72652 -7.68637e-07L8.4784 4.75382L0 13.2345L6.76585 20L15.2462 11.5208L20 16.2746L19.9981 0.00193429Z" fill="#f8fcfe"/></g><rect x="300.17" y="128.75" width="12.51" height="12.51" fill="#f1f9fd"/><rect x="373.74285714285713" y="116.24285714285715" width="25.014285714285712" height="25.014285714285712" fill="#ffffff"/><rect x="386.25" y="116.24" width="12.51" height="12.51" fill="#fbfdff"/><rect x="373.74" y="128.75" width="12.51" height="12.51" fill="#f9fdfe"/><rect x="447.31428571428575" y="116.24285714285715" width="25.014285714285712" height="25.014285714285712" fill="#ffffff"/><g transform="translate(459.82,116.24) scale(0.6255) rotate(0)"><path d="M19.9981 0.00193429L3.72652 -7.68637e-07L8.4784 4.75382L0 13.2345L6.76585 20L15.2462 11.5208L20 16.2746L19.9981 0.00193429Z" fill="#fdfeff"/></g><rect x="631.2428571428571" y="116.24285714285715" width="25.014285714285712" height="25.014285714285712" fill="#ffffff"/><g transform="translate(643.75,116.24) scale(0.6255) rotate(0)"><path d="M19.9981 0.00193429L3.72652 -7.68637e-07L8.4784 4.75382L0 13.2345L6.76585 20L15.2462 11.5208L20 16.2746L19.9981 0.00193429Z" fill="#eef8fd"/></g><g transform="translate(631.24,128.75) scale(0.6255) rotate(0)"><path d="M19.9981 0.00193429L3.72652 -7.68637e-07L8.4784 4.75382L0 13.2345L6.76585 20L15.2462 11.5208L20 16.2746L19.9981 0.00193429Z" fill="#f2fafe"/></g><g transform="translate(643.75,128.75) scale(0.6255) rotate(0)"><path d="M19.9981 0.00193429L3.72652 -7.68637e-07L8.4784 4.75382L0 13.2345L6.76585 20L15.2462 11.5208L20 16.2746L19.9981 0.00193429Z" fill="#fdfeff"/></g><rect x="741.5999999999999" y="116.24285714285715" width="25.014285714285712" height="25.014285714285712" fill="#ffffff"/><rect x="741.6" y="116.24" width="12.51" height="12.51" fill="#f9fdfe"/><g transform="translate(741.6,128.75) scale(0.6255) rotate(0)"><path d="M19.9981 0.00193429L3.72652 -7.68637e-07L8.4784 4.75382L0 13.2345L6.76585 20L15.2462 11.5208L20 16.2746L19.9981 0.00193429Z" fill="#f9fdfe"/></g><g transform="translate(754.11,128.75) scale(0.6255) rotate(0)"><path d="M19.9981 0.00193429L3.72652 -7.68637e-07L8.4784 4.75382L0 13.2345L6.76585 20L15.2462 11.5208L20 16.2746L19.9981 0.00193429Z" fill="#f3fafe"/></g><rect x="851.9571428571428" y="116.24285714285715" width="25.014285714285712" height="25.014285714285712" fill="#ffffff"/><g transform="translate(851.96,116.24) scale(0.6255) rotate(0)"><path d="M19.9981 0.00193429L3.72652 -7.68637e-07L8.4784 4.75382L0 13.2345L6.76585 20L15.2462 11.5208L20 16.2746L19.9981 0.00193429Z" fill="#f7fcfe"/></g><rect x="864.46" y="116.24" width="12.51" height="12.51" fill="#f0f9fd"/><g transform="translate(851.96,128.75) scale(0.6255) rotate(0)"><path d="M19.9981 0.00193429L3.72652 -7.68637e-07L8.4784 4.75382L0 13.2345L6.76585 20L15.2462 11.5208L20 16.2746L19.9981 0.00193429Z" fill="#f6fcfe"/></g><g transform="translate(864.46,128.75) scale(0.6255) rotate(0)"><path d="M19.9981 0.00193429L3.72652 -7.68637e-07L8.4784 4.75382L0 13.2345L6.76585 20L15.2462 11.5208L20 16.2746L19.9981 0.00193429Z" fill="#eff9fd"/></g><rect x="962.3142857142857" y="116.24285714285715" width="25.014285714285712" height="25.014285714285712" fill="#ffffff"/><rect x="962.31" y="116.24" width="12.51" height="12.51" fill="#f0f9fd"/><rect x="974.82" y="128.75" width="12.51" height="12.51" fill="#fcfeff"/><rect x="39.72857142857143" y="150.0857142857143" width="30.9" height="30.9" fill="#ffffff"/><g transform="translate(39.73,150.09) scale(0.7725) rotate(0)"><path d="M19.9981 0.00193429L3.72652 -7.68637e-07L8.4784 4.75382L0 13.2345L6.76585 20L15.2462 11.5208L20 16.2746L19.9981 0.00193429Z" fill="#f3fafe"/></g><g transform="translate(55.18,150.09) scale(0.7725) rotate(0)"><path d="M19.9981 0.00193429L3.72652 -7.68637e-07L8.4784 4.75382L0 13.2345L6.76585 20L15.2462 11.5208L20 16.2746L19.9981 0.00193429Z" fill="#eef8fd"/></g><rect x="55.18" y="165.54" width="15.45" height="15.45" fill="#f4fbfe"/><rect x="76.5142857142857" y="150.0857142857143" width="30.9" height="30.9" fill="#ffffff"/><g transform="translate(76.51,150.09) scale(0.7725) rotate(0)"><path d="M19.9981 0.00193429L3.72652 -7.68637e-07L8.4784 4.75382L0 13.2345L6.76585 20L15.2462 11.5208L20 16.2746L19.9981 0.00193429Z" fill="#fcfeff"/></g><g transform="translate(76.51,165.54) scale(0.7725) rotate(0)"><path d="M19.9981 0.00193429L3.72652 -7.68637e-07L8.4784 4.75382L0 13.2345L6.76585 20L15.2462 11.5208L20 16.2746L19.9981 0.00193429Z" fill="#fbfdff"/></g><rect x="91.96" y="165.54" width="15.45" height="15.45" fill="#fdfeff"/><rect x="113.30000000000001" y="150.0857142857143" width="30.9" height="30.9" fill="#ffffff"/><rect x="113.3" y="150.09" width="15.45" height="15.45" fill="#feffff"/><rect x="128.75" y="150.09" width="15.45" height="15.45" fill="#f1fafd"/><g transform="translate(113.3,165.54) scale(0.7725) rotate(0)"><path d="M19.9981 0.00193429L3.72652 -7.68637e-07L8.4784 4.75382L0 13.2345L6.76585 20L15.2462 11.5208L20 16.2746L19.9981 0.00193429Z" fill="#f4fbfe"/></g><g transform="translate(128.75,165.54) scale(0.7725) rotate(0)"><path d="M19.9981 0.00193429L3.72652 -7.68637e-07L8.4784 4.75382L0 13.2345L6.76585 20L15.2462 11.5208L20 16.2746L19.9981 0.00193429Z" fill="#fbfdff"/></g><rect x="150.0857142857143" y="150.0857142857143" width="30.9" height="30.9" fill="#ffffff"/><g transform="translate(150.09,150.09) scale(0.7725) rotate(0)"><path d="M19.9981 0.00193429L3.72652 -7.68637e-07L8.4784 4.75382L0 13.2345L6.76585 20L15.2462 11.5208L20 16.2746L19.9981 0.00193429Z" fill="#fbfdff"/></g><g transform="translate(165.54,150.09) scale(0.7725) rotate(0)"><path d="M19.9981 0.00193429L3.72652 -7.68637e-07L8.4784 4.75382L0 13.2345L6.76585 20L15.2462 11.5208L20 16.2746L19.9981 0.00193429Z" fill="#f7fcfe"/></g><rect x="150.09" y="165.54" width="15.45" height="15.45" fill="#f9fdfe"/><rect x="165.54" y="165.54" width="15.45" height="15.45" fill="#eff9fd"/><rect x="260.4428571428571" y="150.0857142857143" width="30.9" height="30.9" fill="#ffffff"/><rect x="260.44" y="150.09" width="15.45" height="15.45" fill="#feffff"/><g transform="translate(275.89,150.09) scale(0.7725) rotate(0)"><path d="M19.9981 0.00193429L3.72652 -7.68637e-07L8.4784 4.75382L0 13.2345L6.76585 20L15.2462 11.5208L20 16.2746L19.9981 0.00193429Z" fill="#f6fcfe"/></g><g transform="translate(260.44,165.54) scale(0.7725) rotate(0)"><path d="M19.9981 0.00193429L3.72652 -7.68637e-07L8.4784 4.75382L0 13.2345L6.76585 20L15.2462 11.5208L20 16.2746L19.9981 0.00193429Z" fill="#feffff"/></g><rect x="275.89" y="165.54" width="15.45" height="15.45" fill="#f3fafe"/><rect x="370.79999999999995" y="150.0857142857143" width="30.9" height="30.9" fill="#ffffff"/><rect x="370.8" y="165.54" width="15.45" height="15.45" fill="#f9fdfe"/><rect x="386.25" y="165.54" width="15.45" height="15.45" fill="#f2fafe"/><rect x="407.58571428571423" y="150.0857142857143" width="30.9" height="30.9" fill="#ffffff"/><g transform="translate(423.04,150.09) scale(0.7725) rotate(0)"><path d="M19.9981 0.00193429L3.72652 -7.68637e-07L8.4784 4.75382L0 13.2345L6.76585 20L15.2462 11.5208L20 16.2746L19.9981 0.00193429Z" fill="#eff9fd"/></g><g transform="translate(407.59,165.54) scale(0.7725) rotate(0)"><path d="M19.9981 0.00193429L3.72652 -7.68637e-07L8.4784 4.75382L0 13.2345L6.76585 20L15.2462 11.5208L20 16.2746L19.9981 0.00193429Z" fill="#f1fafd"/></g><g transform="translate(423.04,165.54) scale(0.7725) rotate(0)"><path d="M19.9981 0.00193429L3.72652 -7.68637e-07L8.4784 4.75382L0 13.2345L6.76585 20L15.2462 11.5208L20 16.2746L19.9981 0.00193429Z" fill="#f4fbfe"/></g><rect x="444.37142857142857" y="150.0857142857143" width="30.9" height="30.9" fill="#ffffff"/><rect x="444.37" y="150.09" width="15.45" height="15.45" fill="#feffff"/><g transform="translate(459.82,150.09) scale(0.7725) rotate(0)"><path d="M19.9981 0.00193429L3.72652 -7.68637e-07L8.4784 4.75382L0 13.2345L6.76585 20L15.2462 11.5208L20 16.2746L19.9981 0.00193429Z" fill="#f3fafe"/></g><g transform="translate(444.37,165.54) scale(0.7725) rotate(0)"><path d="M19.9981 0.00193429L3.72652 -7.68637e-07L8.4784 4.75382L0 13.2345L6.76585 20L15.2462 11.5208L20 16.2746L19.9981 0.00193429Z" fill="#f7fcfe"/></g><g transform="translate(459.82,165.54) scale(0.7725) rotate(0)"><path d="M19.9981 0.00193429L3.72652 -7.68637e-07L8.4784 4.75382L0 13.2345L6.76585 20L15.2462 11.5208L20 16.2746L19.9981 0.00193429Z" fill="#eef8fd"/></g><rect x="481.15714285714284" y="150.0857142857143" width="30.9" height="30.9" fill="#ffffff"/><g transform="translate(481.16,150.09) scale(0.7725) rotate(0)"><path d="M19.9981 0.00193429L3.72652 -7.68637e-07L8.4784 4.75382L0 13.2345L6.76585 20L15.2462 11.5208L20 16.2746L19.9981 0.00193429Z" fill="#f1f9fd"/></g><rect x="496.61" y="150.09" width="15.45" height="15.45" fill="#fdfeff"/><rect x="496.61" y="165.54" width="15.45" height="15.45" fill="#f2fafe"/><rect x="517.9428571428572" y="150.0857142857143" width="30.9" height="30.9" fill="#ffffff"/><rect x="517.94" y="165.54" width="15.45" height="15.45" fill="#f9fdfe"/><rect x="533.39" y="165.54" width="15.45" height="15.45" fill="#f7fcfe"/><rect x="554.7285714285714" y="150.0857142857143" width="30.9" height="30.9" fill="#ffffff"/><g transform="translate(554.73,150.09) scale(0.7725) rotate(0)"><path d="M19.9981 0.00193429L3.72652 -7.68637e-07L8.4784 4.75382L0 13.2345L6.76585 20L15.2462 11.5208L20 16.2746L19.9981 0.00193429Z" fill="#fafdfe"/></g><g transform="translate(570.18,150.09) scale(0.7725) rotate(0)"><path d="M19.9981 0.00193429L3.72652 -7.68637e-07L8.4784 4.75382L0 13.2345L6.76585 20L15.2462 11.5208L20 16.2746L19.9981 0.00193429Z" fill="#f1fafd"/></g><rect x="554.73" y="165.54" width="15.45" height="15.45" fill="#f6fbfe"/><g transform="translate(570.18,165.54) scale(0.7725) rotate(0)"><path d="M19.9981 0.00193429L3.72652 -7.68637e-07L8.4784 4.75382L0 13.2345L6.76585 20L15.2462 11.5208L20 16.2746L19.9981 0.00193429Z" fill="#feffff"/></g><rect x="591.5142857142857" y="150.0857142857143" width="30.9" height="30.9" fill="#ffffff"/><g transform="translate(591.51,150.09) scale(0.7725) rotate(0)"><path d="M19.9981 0.00193429L3.72652 -7.68637e-07L8.4784 4.75382L0 13.2345L6.76585 20L15.2462 11.5208L20 16.2746L19.9981 0.00193429Z" fill="#eef8fd"/></g><rect x="606.96" y="150.09" width="15.45" height="15.45" fill="#f9fdfe"/><g transform="translate(591.51,165.54) scale(0.7725) rotate(0)"><path d="M19.9981 0.00193429L3.72652 -7.68637e-07L8.4784 4.75382L0 13.2345L6.76585 20L15.2462 11.5208L20 16.2746L19.9981 0.00193429Z" fill="#feffff"/></g><rect x="606.96" y="165.54" width="15.45" height="15.45" fill="#f2fafe"/><rect x="665.0857142857143" y="150.0857142857143" width="30.9" height="30.9" fill="#ffffff"/><rect x="665.09" y="150.09" width="15.45" height="15.45" fill="#f9fdfe"/><rect x="680.54" y="150.09" width="15.45" height="15.45" fill="#fdfeff"/><rect x="665.09" y="165.54" width="15.45" height="15.45" fill="#f2fafe"/><rect x="680.54" y="165.54" width="15.45" height="15.45" fill="#fefeff"/><rect x="738.6571428571428" y="150.0857142857143" width="30.9" height="30.9" fill="#ffffff"/><g transform="translate(738.66,150.09) scale(0.7725) rotate(0)"><path d="M19.9981 0.00193429L3.72652 -7.68637e-07L8.4784 4.75382L0 13.2345L6.76585 20L15.2462 11.5208L20 16.2746L19.9981 0.00193429Z" fill="#eff9fd"/></g><g transform="translate(754.11,150.09) scale(0.7725) rotate(0)"><path d="M19.9981 0.00193429L3.72652 -7.68637e-07L8.4784 4.75382L0 13.2345L6.76585 20L15.2462 11.5208L20 16.2746L19.9981 0.00193429Z" fill="#eef8fd"/></g><rect x="738.66" y="165.54" width="15.45" height="15.45" fill="#eef8fd"/><rect x="754.11" y="165.54" width="15.45" height="15.45" fill="#f7fcfe"/><rect x="775.4428571428572" y="150.0857142857143" width="30.9" height="30.9" fill="#ffffff"/><g transform="translate(790.89,150.09) scale(0.7725) rotate(0)"><path d="M19.9981 0.00193429L3.72652 -7.68637e-07L8.4784 4.75382L0 13.2345L6.76585 20L15.2462 11.5208L20 16.2746L19.9981 0.00193429Z" fill="#f0f9fd"/></g><g transform="translate(775.44,165.54) scale(0.7725) rotate(0)"><path d="M19.9981 0.00193429L3.72652 -7.68637e-07L8.4784 4.75382L0 13.2345L6.76585 20L15.2462 11.5208L20 16.2746L19.9981 0.00193429Z" fill="#f6fcfe"/></g><rect x="790.89" y="165.54" width="15.45" height="15.45" fill="#f1f9fd"/><rect x="812.2285714285714" y="150.0857142857143" width="30.9" height="30.9" fill="#ffffff"/><rect x="812.23" y="150.09" width="15.45" height="15.45" fill="#ffffff"/><rect x="827.68" y="150.09" width="15.45" height="15.45" fill="#eff9fd"/><g transform="translate(812.23,165.54) scale(0.7725) rotate(0)"><path d="M19.9981 0.00193429L3.72652 -7.68637e-07L8.4784 4.75382L0 13.2345L6.76585 20L15.2462 11.5208L20 16.2746L19.9981 0.00193429Z" fill="#f5fbfe"/></g><rect x="827.68" y="165.54" width="15.45" height="15.45" fill="#f7fcfe"/><rect x="849.0142857142857" y="150.0857142857143" width="30.9" height="30.9" fill="#ffffff"/><rect x="849.01" y="150.09" width="15.45" height="15.45" fill="#f8fcfe"/><rect x="864.46" y="150.09" width="15.45" height="15.45" fill="#f8fcfe"/><g transform="translate(849.01,165.54) scale(0.7725) rotate(0)"><path d="M19.9981 0.00193429L3.72652 -7.68637e-07L8.4784 4.75382L0 13.2345L6.76585 20L15.2462 11.5208L20 16.2746L19.9981 0.00193429Z" fill="#fbfdff"/></g><g transform="translate(864.46,165.54) scale(0.7725) rotate(0)"><path d="M19.9981 0.00193429L3.72652 -7.68637e-07L8.4784 4.75382L0 13.2345L6.76585 20L15.2462 11.5208L20 16.2746L19.9981 0.00193429Z" fill="#f9fdfe"/></g><rect x="885.8000000000001" y="150.0857142857143" width="30.9" height="30.9" fill="#ffffff"/><rect x="885.8" y="150.09" width="15.45" height="15.45" fill="#fbfdff"/><g transform="translate(885.8,165.54) scale(0.7725) rotate(0)"><path d="M19.9981 0.00193429L3.72652 -7.68637e-07L8.4784 4.75382L0 13.2345L6.76585 20L15.2462 11.5208L20 16.2746L19.9981 0.00193429Z" fill="#f0f9fd"/></g><g transform="translate(901.25,165.54) scale(0.7725) rotate(0)"><path d="M19.9981 0.00193429L3.72652 -7.68637e-07L8.4784 4.75382L0 13.2345L6.76585 20L15.2462 11.5208L20 16.2746L19.9981 0.00193429Z" fill="#fbfdff"/></g><rect x="922.5857142857143" y="150.0857142857143" width="30.9" height="30.9" fill="#ffffff"/><rect x="922.59" y="150.09" width="15.45" height="15.45" fill="#ffffff"/><rect x="938.04" y="150.09" width="15.45" height="15.45" fill="#f7fcfe"/><g transform="translate(938.04,165.54) scale(0.7725) rotate(0)"><path d="M19.9981 0.00193429L3.72652 -7.68637e-07L8.4784 4.75382L0 13.2345L6.76585 20L15.2462 11.5208L20 16.2746L19.9981 0.00193429Z" fill="#f9fdfe"/></g><rect x="0" y="183.92857142857142" width="36.785714285714285" height="36.785714285714285" fill="#ffffff"/><rect x="0" y="183.93" width="18.39" height="18.39" fill="#fbfdff"/><rect x="18.39" y="183.93" width="18.39" height="18.39" fill="#fcfeff"/><rect x="0" y="202.32" width="18.39" height="18.39" fill="#f8fcfe"/><g transform="translate(18.39,202.32) scale(0.9195) rotate(0)"><path d="M19.9981 0.00193429L3.72652 -7.68637e-07L8.4784 4.75382L0 13.2345L6.76585 20L15.2462 11.5208L20 16.2746L19.9981 0.00193429Z" fill="#f9fdfe"/></g><rect x="36.785714285714285" y="183.92857142857142" width="36.785714285714285" height="36.785714285714285" fill="#ffffff"/><g transform="translate(36.79,183.93) scale(0.9195) rotate(0)"><path d="M19.9981 0.00193429L3.72652 -7.68637e-07L8.4784 4.75382L0 13.2345L6.76585 20L15.2462 11.5208L20 16.2746L19.9981 0.00193429Z" fill="#f9fdfe"/></g><g transform="translate(55.18,183.93) scale(0.9195) rotate(0)"><path d="M19.9981 0.00193429L3.72652 -7.68637e-07L8.4784 4.75382L0 13.2345L6.76585 20L15.2462 11.5208L20 16.2746L19.9981 0.00193429Z" fill="#fafdfe"/></g><rect x="36.79" y="202.32" width="18.39" height="18.39" fill="#f1f9fd"/><rect x="55.18" y="202.32" width="18.39" height="18.39" fill="#ffffff"/><rect x="73.57142857142857" y="183.92857142857142" width="36.785714285714285" height="36.785714285714285" fill="#ffffff"/><rect x="73.57" y="183.93" width="18.39" height="18.39" fill="#eff9fd"/><rect x="91.96" y="183.93" width="18.39" height="18.39" fill="#f8fcfe"/><g transform="translate(73.57,202.32) scale(0.9195) rotate(0)"><path d="M19.9981 0.00193429L3.72652 -7.68637e-07L8.4784 4.75382L0 13.2345L6.76585 20L15.2462 11.5208L20 16.2746L19.9981 0.00193429Z" fill="#fdfeff"/></g><g transform="translate(91.96,202.32) scale(0.9195) rotate(0)"><path d="M19.9981 0.00193429L3.72652 -7.68637e-07L8.4784 4.75382L0 13.2345L6.76585 20L15.2462 11.5208L20 16.2746L19.9981 0.00193429Z" fill="#fdfeff"/></g><rect x="110.35714285714286" y="183.92857142857142" width="36.785714285714285" height="36.785714285714285" fill="#ffffff"/><rect x="110.36" y="183.93" width="18.39" height="18.39" fill="#eef9fd"/><g transform="translate(128.75,183.93) scale(0.9195) rotate(0)"><path d="M19.9981 0.00193429L3.72652 -7.68637e-07L8.4784 4.75382L0 13.2345L6.76585 20L15.2462 11.5208L20 16.2746L19.9981 0.00193429Z" fill="#fcfeff"/></g><g transform="translate(110.36,202.32) scale(0.9195) rotate(0)"><path d="M19.9981 0.00193429L3.72652 -7.68637e-07L8.4784 4.75382L0 13.2345L6.76585 20L15.2462 11.5208L20 16.2746L19.9981 0.00193429Z" fill="#fdfeff"/></g><g transform="translate(128.75,202.32) scale(0.9195) rotate(0)"><path d="M19.9981 0.00193429L3.72652 -7.68637e-07L8.4784 4.75382L0 13.2345L6.76585 20L15.2462 11.5208L20 16.2746L19.9981 0.00193429Z" fill="#fcfeff"/></g><rect x="147.14285714285714" y="183.92857142857142" width="36.785714285714285" height="36.785714285714285" fill="#ffffff"/><rect x="147.14" y="183.93" width="18.39" height="18.39" fill="#f1fafd"/><g transform="translate(165.54,183.93) scale(0.9195) rotate(0)"><path d="M19.9981 0.00193429L3.72652 -7.68637e-07L8.4784 4.75382L0 13.2345L6.76585 20L15.2462 11.5208L20 16.2746L19.9981 0.00193429Z" fill="#f0f9fd"/></g><rect x="147.14" y="202.32" width="18.39" height="18.39" fill="#f8fcfe"/><rect x="165.54" y="202.32" width="18.39" height="18.39" fill="#feffff"/><rect x="183.92857142857142" y="183.92857142857142" width="36.785714285714285" height="36.785714285714285" fill="#ffffff"/><g transform="translate(183.93,183.93) scale(0.9195) rotate(0)"><path d="M19.9981 0.00193429L3.72652 -7.68637e-07L8.4784 4.75382L0 13.2345L6.76585 20L15.2462 11.5208L20 16.2746L19.9981 0.00193429Z" fill="#f2fafe"/></g><g transform="translate(202.32,183.93) scale(0.9195) rotate(0)"><path d="M19.9981 0.00193429L3.72652 -7.68637e-07L8.4784 4.75382L0 13.2345L6.76585 20L15.2462 11.5208L20 16.2746L19.9981 0.00193429Z" fill="#f4fbfe"/></g><g transform="translate(183.93,202.32) scale(0.9195) rotate(0)"><path d="M19.9981 0.00193429L3.72652 -7.68637e-07L8.4784 4.75382L0 13.2345L6.76585 20L15.2462 11.5208L20 16.2746L19.9981 0.00193429Z" fill="#fcfeff"/></g><rect x="202.32" y="202.32" width="18.39" height="18.39" fill="#f0f9fd"/><rect x="220.71428571428572" y="183.92857142857142" width="36.785714285714285" height="36.785714285714285" fill="#ffffff"/><g transform="translate(220.71,183.93) scale(0.9195) rotate(0)"><path d="M19.9981 0.00193429L3.72652 -7.68637e-07L8.4784 4.75382L0 13.2345L6.76585 20L15.2462 11.5208L20 16.2746L19.9981 0.00193429Z" fill="#eff9fd"/></g><rect x="239.11" y="183.93" width="18.39" height="18.39" fill="#ffffff"/><g transform="translate(220.71,202.32) scale(0.9195) rotate(0)"><path d="M19.9981 0.00193429L3.72652 -7.68637e-07L8.4784 4.75382L0 13.2345L6.76585 20L15.2462 11.5208L20 16.2746L19.9981 0.00193429Z" fill="#f5fbfe"/></g><rect x="239.11" y="202.32" width="18.39" height="18.39" fill="#fbfdff"/><rect x="257.5" y="183.92857142857142" width="36.785714285714285" height="36.785714285714285" fill="#ffffff"/><g transform="translate(257.5,183.93) scale(0.9195) rotate(0)"><path d="M19.9981 0.00193429L3.72652 -7.68637e-07L8.4784 4.75382L0 13.2345L6.76585 20L15.2462 11.5208L20 16.2746L19.9981 0.00193429Z" fill="#eef8fd"/></g><rect x="275.89" y="183.93" width="18.39" height="18.39" fill="#f2fafe"/><rect x="257.5" y="202.32" width="18.39" height="18.39" fill="#f0f9fd"/><rect x="275.89" y="202.32" width="18.39" height="18.39" fill="#f0f9fd"/><rect x="294.2857142857143" y="183.92857142857142" width="36.785714285714285" height="36.785714285714285" fill="#ffffff"/><g transform="translate(294.29,183.93) scale(0.9195) rotate(0)"><path d="M19.9981 0.00193429L3.72652 -7.68637e-07L8.4784 4.75382L0 13.2345L6.76585 20L15.2462 11.5208L20 16.2746L19.9981 0.00193429Z" fill="#fcfeff"/></g><g transform="translate(312.68,183.93) scale(0.9195) rotate(0)"><path d="M19.9981 0.00193429L3.72652 -7.68637e-07L8.4784 4.75382L0 13.2345L6.76585 20L15.2462 11.5208L20 16.2746L19.9981 0.00193429Z" fill="#f5fbfe"/></g><g transform="translate(294.29,202.32) scale(0.9195) rotate(0)"><path d="M19.9981 0.00193429L3.72652 -7.68637e-07L8.4784 4.75382L0 13.2345L6.76585 20L15.2462 11.5208L20 16.2746L19.9981 0.00193429Z" fill="#f6fcfe"/></g><g transform="translate(312.68,202.32) scale(0.9195) rotate(0)"><path d="M19.9981 0.00193429L3.72652 -7.68637e-07L8.4784 4.75382L0 13.2345L6.76585 20L15.2462 11.5208L20 16.2746L19.9981 0.00193429Z" fill="#f8fcfe"/></g><rect x="331.07142857142856" y="183.92857142857142" width="36.785714285714285" height="36.785714285714285" fill="#ffffff"/><g transform="translate(331.07,183.93) scale(0.9195) rotate(0)"><path d="M19.9981 0.00193429L3.72652 -7.68637e-07L8.4784 4.75382L0 13.2345L6.76585 20L15.2462 11.5208L20 16.2746L19.9981 0.00193429Z" fill="#eef8fd"/></g><g transform="translate(349.46,183.93) scale(0.9195) rotate(0)"><path d="M19.9981 0.00193429L3.72652 -7.68637e-07L8.4784 4.75382L0 13.2345L6.76585 20L15.2462 11.5208L20 16.2746L19.9981 0.00193429Z" fill="#f7fcfe"/></g><g transform="translate(331.07,202.32) scale(0.9195) rotate(0)"><path d="M19.9981 0.00193429L3.72652 -7.68637e-07L8.4784 4.75382L0 13.2345L6.76585 20L15.2462 11.5208L20 16.2746L19.9981 0.00193429Z" fill="#feffff"/></g><g transform="translate(349.46,202.32) scale(0.9195) rotate(0)"><path d="M19.9981 0.00193429L3.72652 -7.68637e-07L8.4784 4.75382L0 13.2345L6.76585 20L15.2462 11.5208L20 16.2746L19.9981 0.00193429Z" fill="#fdfeff"/></g><rect x="367.85714285714283" y="183.92857142857142" width="36.785714285714285" height="36.785714285714285" fill="#ffffff"/><rect x="367.86" y="183.93" width="18.39" height="18.39" fill="#f3fafe"/><g transform="translate(386.25,183.93) scale(0.9195) rotate(0)"><path d="M19.9981 0.00193429L3.72652 -7.68637e-07L8.4784 4.75382L0 13.2345L6.76585 20L15.2462 11.5208L20 16.2746L19.9981 0.00193429Z" fill="#f2fafe"/></g><g transform="translate(367.86,202.32) scale(0.9195) rotate(0)"><path d="M19.9981 0.00193429L3.72652 -7.68637e-07L8.4784 4.75382L0 13.2345L6.76585 20L15.2462 11.5208L20 16.2746L19.9981 0.00193429Z" fill="#feffff"/></g><g transform="translate(386.25,202.32) scale(0.9195) rotate(0)"><path d="M19.9981 0.00193429L3.72652 -7.68637e-07L8.4784 4.75382L0 13.2345L6.76585 20L15.2462 11.5208L20 16.2746L19.9981 0.00193429Z" fill="#eff9fd"/></g><rect x="404.6428571428571" y="183.92857142857142" width="36.785714285714285" height="36.785714285714285" fill="#ffffff"/><g transform="translate(404.64,183.93) scale(0.9195) rotate(0)"><path d="M19.9981 0.00193429L3.72652 -7.68637e-07L8.4784 4.75382L0 13.2345L6.76585 20L15.2462 11.5208L20 16.2746L19.9981 0.00193429Z" fill="#f9fdfe"/></g><rect x="423.04" y="183.93" width="18.39" height="18.39" fill="#f4fbfe"/><g transform="translate(404.64,202.32) scale(0.9195) rotate(0)"><path d="M19.9981 0.00193429L3.72652 -7.68637e-07L8.4784 4.75382L0 13.2345L6.76585 20L15.2462 11.5208L20 16.2746L19.9981 0.00193429Z" fill="#ffffff"/></g><rect x="423.04" y="202.32" width="18.39" height="18.39" fill="#f5fbfe"/><rect x="441.42857142857144" y="183.92857142857142" width="36.785714285714285" height="36.785714285714285" fill="#ffffff"/><g transform="translate(441.43,183.93) scale(0.9195) rotate(0)"><path d="M19.9981 0.00193429L3.72652 -7.68637e-07L8.4784 4.75382L0 13.2345L6.76585 20L15.2462 11.5208L20 16.2746L19.9981 0.00193429Z" fill="#eff9fd"/></g><g transform="translate(459.82,183.93) scale(0.9195) rotate(0)"><path d="M19.9981 0.00193429L3.72652 -7.68637e-07L8.4784 4.75382L0 13.2345L6.76585 20L15.2462 11.5208L20 16.2746L19.9981 0.00193429Z" fill="#eff9fd"/></g><rect x="441.43" y="202.32" width="18.39" height="18.39" fill="#f8fcfe"/><g transform="translate(459.82,202.32) scale(0.9195) rotate(0)"><path d="M19.9981 0.00193429L3.72652 -7.68637e-07L8.4784 4.75382L0 13.2345L6.76585 20L15.2462 11.5208L20 16.2746L19.9981 0.00193429Z" fill="#f3fafe"/></g><rect x="478.2142857142857" y="183.92857142857142" width="36.785714285714285" height="36.785714285714285" fill="#ffffff"/><rect x="478.21" y="183.93" width="18.39" height="18.39" fill="#feffff"/><rect x="496.61" y="183.93" width="18.39" height="18.39" fill="#f2fafe"/><rect x="478.21" y="202.32" width="18.39" height="18.39" fill="#eff9fd"/><g transform="translate(496.61,202.32) scale(0.9195) rotate(0)"><path d="M19.9981 0.00193429L3.72652 -7.68637e-07L8.4784 4.75382L0 13.2345L6.76585 20L15.2462 11.5208L20 16.2746L19.9981 0.00193429Z" fill="#f2fafe"/></g><rect x="515" y="183.92857142857142" width="36.785714285714285" height="36.785714285714285" fill="#ffffff"/><g transform="translate(515,183.93) scale(0.9195) rotate(0)"><path d="M19.9981 0.00193429L3.72652 -7.68637e-07L8.4784 4.75382L0 13.2345L6.76585 20L15.2462 11.5208L20 16.2746L19.9981 0.00193429Z" fill="#f7fcfe"/></g><rect x="533.39" y="183.93" width="18.39" height="18.39" fill="#f8fcfe"/><g transform="translate(515,202.32) scale(0.9195) rotate(0)"><path d="M19.9981 0.00193429L3.72652 -7.68637e-07L8.4784 4.75382L0 13.2345L6.76585 20L15.2462 11.5208L20 16.2746L19.9981 0.00193429Z" fill="#fcfeff"/></g><g transform="translate(533.39,202.32) scale(0.9195) rotate(0)"><path d="M19.9981 0.00193429L3.72652 -7.68637e-07L8.4784 4.75382L0 13.2345L6.76585 20L15.2462 11.5208L20 16.2746L19.9981 0.00193429Z" fill="#f0f9fd"/></g><rect x="551.7857142857142" y="183.92857142857142" width="36.785714285714285" height="36.785714285714285" fill="#ffffff"/><rect x="551.79" y="183.93" width="18.39" height="18.39" fill="#fafdfe"/><rect x="570.18" y="183.93" width="18.39" height="18.39" fill="#f8fcfe"/><rect x="551.79" y="202.32" width="18.39" height="18.39" fill="#fdfeff"/><rect x="570.18" y="202.32" width="18.39" height="18.39" fill="#f7fcfe"/><rect x="588.5714285714286" y="183.92857142857142" width="36.785714285714285" height="36.785714285714285" fill="#ffffff"/><g transform="translate(588.57,183.93) scale(0.9195) rotate(0)"><path d="M19.9981 0.00193429L3.72652 -7.68637e-07L8.4784 4.75382L0 13.2345L6.76585 20L15.2462 11.5208L20 16.2746L19.9981 0.00193429Z" fill="#f4fbfe"/></g><rect x="606.96" y="183.93" width="18.39" height="18.39" fill="#fdfeff"/><rect x="588.57" y="202.32" width="18.39" height="18.39" fill="#eef8fd"/><rect x="606.96" y="202.32" width="18.39" height="18.39" fill="#f5fbfe"/><rect x="625.3571428571429" y="183.92857142857142" width="36.785714285714285" height="36.785714285714285" fill="#ffffff"/><g transform="translate(625.36,183.93) scale(0.9195) rotate(0)"><path d="M19.9981 0.00193429L3.72652 -7.68637e-07L8.4784 4.75382L0 13.2345L6.76585 20L15.2462 11.5208L20 16.2746L19.9981 0.00193429Z" fill="#feffff"/></g><rect x="643.75" y="183.93" width="18.39" height="18.39" fill="#f4fbfe"/><rect x="625.36" y="202.32" width="18.39" height="18.39" fill="#f9fdfe"/><rect x="643.75" y="202.32" width="18.39" height="18.39" fill="#f1fafd"/><rect x="662.1428571428571" y="183.92857142857142" width="36.785714285714285" height="36.785714285714285" fill="#ffffff"/><rect x="662.14" y="183.93" width="18.39" height="18.39" fill="#fbfdff"/><g transform="translate(680.54,183.93) scale(0.9195) rotate(0)"><path d="M19.9981 0.00193429L3.72652 -7.68637e-07L8.4784 4.75382L0 13.2345L6.76585 20L15.2462 11.5208L20 16.2746L19.9981 0.00193429Z" fill="#feffff"/></g><rect x="662.14" y="202.32" width="18.39" height="18.39" fill="#f6fcfe"/><rect x="680.54" y="202.32" width="18.39" height="18.39" fill="#f6fcfe"/><rect x="698.9285714285714" y="183.92857142857142" width="36.785714285714285" height="36.785714285714285" fill="#ffffff"/><rect x="698.93" y="183.93" width="18.39" height="18.39" fill="#fbfdff"/><rect x="717.32" y="183.93" width="18.39" height="18.39" fill="#fcfeff"/><rect x="698.93" y="202.32" width="18.39" height="18.39" fill="#f2fafe"/><g transform="translate(717.32,202.32) scale(0.9195) rotate(0)"><path d="M19.9981 0.00193429L3.72652 -7.68637e-07L8.4784 4.75382L0 13.2345L6.76585 20L15.2462 11.5208L20 16.2746L19.9981 0.00193429Z" fill="#f8fcfe"/></g><rect x="735.7142857142857" y="183.92857142857142" width="36.785714285714285" height="36.785714285714285" fill="#ffffff"/><rect x="735.71" y="183.93" width="18.39" height="18.39" fill="#fdfeff"/><g transform="translate(754.11,183.93) scale(0.9195) rotate(0)"><path d="M19.9981 0.00193429L3.72652 -7.68637e-07L8.4784 4.75382L0 13.2345L6.76585 20L15.2462 11.5208L20 16.2746L19.9981 0.00193429Z" fill="#f3fafe"/></g><g transform="translate(735.71,202.32) scale(0.9195) rotate(0)"><path d="M19.9981 0.00193429L3.72652 -7.68637e-07L8.4784 4.75382L0 13.2345L6.76585 20L15.2462 11.5208L20 16.2746L19.9981 0.00193429Z" fill="#eef8fd"/></g><g transform="translate(754.11,202.32) scale(0.9195) rotate(0)"><path d="M19.9981 0.00193429L3.72652 -7.68637e-07L8.4784 4.75382L0 13.2345L6.76585 20L15.2462 11.5208L20 16.2746L19.9981 0.00193429Z" fill="#fdfeff"/></g><rect x="772.5" y="183.92857142857142" width="36.785714285714285" height="36.785714285714285" fill="#ffffff"/><rect x="772.5" y="183.93" width="18.39" height="18.39" fill="#fafdfe"/><g transform="translate(790.89,183.93) scale(0.9195) rotate(0)"><path d="M19.9981 0.00193429L3.72652 -7.68637e-07L8.4784 4.75382L0 13.2345L6.76585 20L15.2462 11.5208L20 16.2746L19.9981 0.00193429Z" fill="#edf8fd"/></g><rect x="772.5" y="202.32" width="18.39" height="18.39" fill="#fcfeff"/><rect x="790.89" y="202.32" width="18.39" height="18.39" fill="#edf8fd"/><rect x="809.2857142857142" y="183.92857142857142" width="36.785714285714285" height="36.785714285714285" fill="#ffffff"/><g transform="translate(809.29,183.93) scale(0.9195) rotate(0)"><path d="M19.9981 0.00193429L3.72652 -7.68637e-07L8.4784 4.75382L0 13.2345L6.76585 20L15.2462 11.5208L20 16.2746L19.9981 0.00193429Z" fill="#f4fbfe"/></g><rect x="827.68" y="183.93" width="18.39" height="18.39" fill="#eef8fd"/><g transform="translate(809.29,202.32) scale(0.9195) rotate(0)"><path d="M19.9981 0.00193429L3.72652 -7.68637e-07L8.4784 4.75382L0 13.2345L6.76585 20L15.2462 11.5208L20 16.2746L19.9981 0.00193429Z" fill="#fafdfe"/></g><rect x="827.68" y="202.32" width="18.39" height="18.39" fill="#fcfeff"/><rect x="846.0714285714286" y="183.92857142857142" width="36.785714285714285" height="36.785714285714285" fill="#ffffff"/><rect x="846.07" y="183.93" width="18.39" height="18.39" fill="#f5fbfe"/><rect x="864.46" y="183.93" width="18.39" height="18.39" fill="#eef8fd"/><g transform="translate(846.07,202.32) scale(0.9195) rotate(0)"><path d="M19.9981 0.00193429L3.72652 -7.68637e-07L8.4784 4.75382L0 13.2345L6.76585 20L15.2462 11.5208L20 16.2746L19.9981 0.00193429Z" fill="#fbfdff"/></g><rect x="864.46" y="202.32" width="18.39" height="18.39" fill="#fdfeff"/><rect x="882.8571428571429" y="183.92857142857142" width="36.785714285714285" height="36.785714285714285" fill="#ffffff"/><g transform="translate(882.86,183.93) scale(0.9195) rotate(0)"><path d="M19.9981 0.00193429L3.72652 -7.68637e-07L8.4784 4.75382L0 13.2345L6.76585 20L15.2462 11.5208L20 16.2746L19.9981 0.00193429Z" fill="#f1f9fd"/></g><rect x="901.25" y="183.93" width="18.39" height="18.39" fill="#f9fdfe"/><rect x="882.86" y="202.32" width="18.39" height="18.39" fill="#fafdfe"/><rect x="901.25" y="202.32" width="18.39" height="18.39" fill="#fcfeff"/><rect x="919.6428571428571" y="183.92857142857142" width="36.785714285714285" height="36.785714285714285" fill="#ffffff"/><g transform="translate(919.64,183.93) scale(0.9195) rotate(0)"><path d="M19.9981 0.00193429L3.72652 -7.68637e-07L8.4784 4.75382L0 13.2345L6.76585 20L15.2462 11.5208L20 16.2746L19.9981 0.00193429Z" fill="#f8fcfe"/></g><rect x="938.04" y="183.93" width="18.39" height="18.39" fill="#eff9fd"/><rect x="919.64" y="202.32" width="18.39" height="18.39" fill="#fbfdff"/><rect x="938.04" y="202.32" width="18.39" height="18.39" fill="#feffff"/><rect x="956.4285714285714" y="183.92857142857142" width="36.785714285714285" height="36.785714285714285" fill="#ffffff"/><rect x="956.43" y="183.93" width="18.39" height="18.39" fill="#fdfeff"/><rect x="974.82" y="183.93" width="18.39" height="18.39" fill="#f5fbfe"/><g transform="translate(956.43,202.32) scale(0.9195) rotate(0)"><path d="M19.9981 0.00193429L3.72652 -7.68637e-07L8.4784 4.75382L0 13.2345L6.76585 20L15.2462 11.5208L20 16.2746L19.9981 0.00193429Z" fill="#fcfeff"/></g><rect x="974.82" y="202.32" width="18.39" height="18.39" fill="#f3fbfe"/><rect x="993.2142857142857" y="183.92857142857142" width="36.785714285714285" height="36.785714285714285" fill="#ffffff"/><g transform="translate(993.21,183.93) scale(0.9195) rotate(0)"><path d="M19.9981 0.00193429L3.72652 -7.68637e-07L8.4784 4.75382L0 13.2345L6.76585 20L15.2462 11.5208L20 16.2746L19.9981 0.00193429Z" fill="#fdfeff"/></g><rect x="1011.61" y="183.93" width="18.39" height="18.39" fill="#eef8fd"/><g transform="translate(993.21,202.32) scale(0.9195) rotate(0)"><path d="M19.9981 0.00193429L3.72652 -7.68637e-07L8.4784 4.75382L0 13.2345L6.76585 20L15.2462 11.5208L20 16.2746L19.9981 0.00193429Z" fill="#f9fdfe"/></g><rect x="1011.61" y="202.32" width="18.39" height="18.39" fill="#f0f9fd"/></g></svg>